<svg xmlns="http://www.w3.org/2000/svg" xmlns:xlink="http://www.w3.org/1999/xlink" fill="none" version="1.1" width="16" height="16" viewBox="0 0 16 16"><defs><clipPath id="master_svg0_1_18632"><rect x="0" y="0" width="16" height="16" rx="0"/></clipPath></defs><g clip-path="url(#master_svg0_1_18632)"><path d="M4.0796878,8.046832575390624Q4.0796881,8.122288475390626,4.0722919,8.197380775390625Q4.0648961,8.272473075390625,4.0501752,8.346478975390625Q4.0354545,8.420484975390625,4.0135508,8.492691675390624Q3.991647,8.564898275390625,3.9627712,8.634610175390625Q3.9338956,8.704322375390625,3.8983259,8.770868275390626Q3.8627563,8.837414475390625,3.8208351,8.900153675390625Q3.7789145,8.962892975390625,3.731046,9.021221175390625Q3.6831775,9.079549275390626,3.6298218,9.132904275390626Q3.5764666,9.186259775390624,3.5181386,9.234128475390625Q3.4598103,9.281997175390625,3.3970711,9.323917875390626Q3.334332,9.365838975390625,3.2677858,9.401408475390625Q3.2012398,9.436978375390625,3.1315277,9.465853675390624Q3.0618157,9.494729475390624,2.9896092000000003,9.516633275390625Q2.9174024999999997,9.538537075390625,2.8433965,9.553257475390625Q2.7693906999999998,9.567978375390625,2.6942984,9.575374375390625Q2.619206,9.582770375390625,2.5437502,9.582770375390625Q2.4682945,9.582770375390625,2.3932021,9.575374575390626Q2.3181095000000003,9.567978375390625,2.2441036,9.553257475390625Q2.1700977,9.538537075390625,2.0978909999999997,9.516633275390625Q2.0256844000000003,9.494729475390624,1.95597219,9.465853675390624Q1.88626015,9.436978375390625,1.81971413,9.401408675390625Q1.7531681099999998,9.365838975390625,1.69042885,9.323918075390624Q1.62768972,9.281997175390625,1.5693615699999999,9.234128675390625Q1.5110335400000001,9.186260175390625,1.4576782,9.132904575390626Q1.40432292,9.079549275390626,1.35645428,9.021221175390625Q1.30858564,8.962892975390625,1.26666465,8.900153675390625Q1.22474368,8.837414475390625,1.18917407,8.770868275390626Q1.15360445,8.704322375390625,1.12472878,8.634610175390625Q1.095853105,8.564898275390625,1.073949456,8.492691675390624Q1.0520458,8.420484975390625,1.037325107,8.346478975390625Q1.022604418,8.272473075390625,1.015208459,8.197380775390625Q1.0078125,8.122288475390626,1.0078125,8.046832575390624Q1.0078125,7.971376875390625,1.015208459,7.896284375390625Q1.022604418,7.821191775390625,1.037325107,7.747185875390625Q1.0520458,7.6731799753906245,1.073949456,7.600973275390625Q1.095853105,7.528766675390625,1.12472878,7.459054525390625Q1.15360445,7.389342545390625,1.18917406,7.322796465390625Q1.2247436600000001,7.256250385390625,1.26666462,7.193511125390625Q1.30858564,7.130771995390625,1.35645428,7.072443965390625Q1.40432292,7.014115815390625,1.4576782,6.960760505390625Q1.5110335400000001,6.907405225390625,1.56936163,6.859536585390625Q1.62768972,6.811667915390625,1.69042885,6.769746925390625Q1.7531681099999998,6.727825965390625,1.81971413,6.692256365390625Q1.88626015,6.656686735390625,1.95597219,6.627811055390625Q2.0256844000000003,6.598935388390625,2.0978909999999997,6.577031731390625Q2.1700977,6.555128075390625,2.2441036,6.540407383390625Q2.3181095000000003,6.525686694390625,2.3932021,6.518290734890625Q2.4682945,6.510894775390625,2.5437502,6.510894775390625Q2.619206,6.510894775390625,2.6942984,6.518290734890625Q2.7693908,6.525686694390625,2.8433967,6.540407383390625Q2.9174026,6.555128075390625,2.9896092000000003,6.577031731390625Q3.061816,6.598935388390625,3.1315279,6.627811055390625Q3.2012401,6.656686735390625,3.267786,6.692256365390625Q3.334332,6.727825965390625,3.3970711,6.769746925390625Q3.4598103,6.811667915390625,3.5181386,6.859536585390625Q3.5764666,6.907405225390625,3.6298218,6.960760505390625Q3.6831775,7.014115815390625,3.731046,7.0724439053906245Q3.7789145,7.130771995390625,3.8208354,7.193511125390625Q3.8627563,7.256250385390625,3.8983259,7.322796465390625Q3.9338956,7.389342545390625,3.9627712,7.459054525390625Q3.991647,7.528766675390625,4.0135508,7.600973375390625Q4.0354543,7.6731799753906245,4.050174999999999,7.747185875390625Q4.0648959,7.821191775390625,4.0722919,7.896284375390625Q4.0796881,7.971376875390625,4.0796878,8.046832575390624Z" fill="#707070" fill-opacity="1"/><path d="M9.53543761171875,8.046832575390624Q9.53543781171875,8.122288475390626,9.52804181171875,8.197380775390625Q9.52064561171875,8.272473075390625,9.50592471171875,8.346478975390625Q9.49120431171875,8.420484975390625,9.46930051171875,8.492691675390624Q9.44739671171875,8.564898275390625,9.41852091171875,8.634610175390625Q9.38964561171875,8.704322375390625,9.35407591171875,8.770868275390626Q9.31850621171875,8.837414475390625,9.27658531171875,8.900153675390625Q9.23466441171875,8.962892975390625,9.18679571171875,9.021221175390625Q9.13892701171875,9.079549275390626,9.08557151171875,9.132904275390626Q9.032216511718751,9.186259775390624,8.97388841171875,9.234128475390625Q8.91556021171875,9.281997175390625,8.85282091171875,9.323917875390626Q8.79008171171875,9.365838975390625,8.723535511718751,9.401408475390625Q8.65698961171875,9.436978375390625,8.58727721171875,9.465853675390624Q8.51756521171875,9.494729475390624,8.44535871171875,9.516633275390625Q8.37315201171875,9.538537075390625,8.29914601171875,9.553257475390625Q8.22514021171875,9.567978375390625,8.150047911718751,9.575374375390625Q8.07495551171875,9.582770375390625,7.99949951171875,9.582770375390625Q7.9240439117187496,9.582770375390625,7.84895131171875,9.575374575390626Q7.77385881171875,9.567978375390625,7.69985281171875,9.553257475390625Q7.62584701171875,9.538537075390625,7.5536404117187494,9.516633275390625Q7.48143361171875,9.494729475390624,7.41172147171875,9.465853675390624Q7.34200942171875,9.436978375390625,7.2754633417187495,9.401408675390625Q7.20891726171875,9.365838975390625,7.14617801171875,9.323918075390624Q7.08343887171875,9.281997175390625,7.02511072171875,9.234128675390625Q6.9667826317187505,9.186260175390625,6.91342732171875,9.132904575390626Q6.86007201171875,9.079549275390626,6.81220338171875,9.021221175390625Q6.76433474171875,8.962892975390625,6.72241372171875,8.900153675390625Q6.68049274171875,8.837414475390625,6.64492312171875,8.770868275390626Q6.60935351171875,8.704322375390625,6.58047782171875,8.634610175390625Q6.55160215471875,8.564898275390625,6.52969849871875,8.492691675390624Q6.50779484171875,8.420484975390625,6.49307414471875,8.346478975390625Q6.47835345471875,8.272473075390625,6.47095749431875,8.197380775390625Q6.46356153488159,8.122288475390626,6.46356153488159,8.046832575390624Q6.46356153488159,7.971376875390625,6.47095749621875,7.896284375390625Q6.47835345771875,7.821191775390625,6.49307415071875,7.747185875390625Q6.50779484571875,7.6731799753906245,6.52969850571875,7.600973275390625Q6.55160216971875,7.528766675390625,6.58047784171875,7.459054525390625Q6.60935353171875,7.389342545390625,6.64492315171875,7.322796465390625Q6.68049276171875,7.256250385390625,6.72241375171875,7.193511125390625Q6.76433474171875,7.130771995390625,6.81220341171875,7.072443965390625Q6.86007207171875,7.014115815390625,6.91342735171875,6.960760505390625Q6.96678269171875,6.907405225390625,7.02511072171875,6.859536585390625Q7.08343887171875,6.811667915390625,7.14617801171875,6.769746925390625Q7.20891726171875,6.727825965390625,7.27546328171875,6.692256365390625Q7.34200942171875,6.656686735390625,7.41172141171875,6.627811055390625Q7.48143361171875,6.598935388390625,7.55364021171875,6.577031731390625Q7.62584701171875,6.555128075390625,7.69985281171875,6.540407383390625Q7.77385881171875,6.525686694390625,7.84895131171875,6.518290734890625Q7.9240439117187496,6.510894775390625,7.99949951171875,6.510894775390625Q8.07495551171875,6.510894775390625,8.15004781171875,6.518290734890625Q8.22514011171875,6.525686694390625,8.29914591171875,6.540407383390625Q8.37315201171875,6.555128075390625,8.44535851171875,6.577031731390625Q8.51756521171875,6.598935388390625,8.58727721171875,6.627811055390625Q8.65698961171875,6.656686735390625,8.723535511718751,6.692256365390625Q8.79008171171875,6.727825965390625,8.85282091171875,6.769746925390625Q8.91556021171875,6.811667915390625,8.97388841171875,6.859536585390625Q9.032216511718751,6.907405225390625,9.08557151171875,6.960760505390625Q9.13892701171875,7.014115815390625,9.18679571171875,7.0724439053906245Q9.23466441171875,7.130771995390625,9.27658511171875,7.193511125390625Q9.31850621171875,7.256250385390625,9.35407571171875,7.322796465390625Q9.38964561171875,7.389342545390625,9.41852091171875,7.459054525390625Q9.44739671171875,7.528766675390625,9.46930051171875,7.600973375390625Q9.49120431171875,7.6731799753906245,9.50592471171875,7.747185875390625Q9.52064561171875,7.821191775390625,9.52804161171875,7.896284375390625Q9.53543781171875,7.971376875390625,9.53543761171875,8.046832575390624Z" fill="#707070" fill-opacity="1"/><path d="M14.99112698828125,8.046832575390624Q14.99112728828125,8.122288475390626,14.98373128828125,8.197380775390625Q14.97633508828125,8.272473075390625,14.96161408828125,8.346478975390625Q14.94689368828125,8.420484975390625,14.92498968828125,8.492691675390624Q14.90308618828125,8.564898275390625,14.87421038828125,8.634610175390625Q14.84533498828125,8.704322375390625,14.80976538828125,8.770868275390626Q14.77419568828125,8.837414475390625,14.73227448828125,8.900153675390625Q14.69035388828125,8.962892975390625,14.642485188281249,9.021221175390625Q14.59461638828125,9.079549275390626,14.54126098828125,9.132904275390626Q14.48790598828125,9.186259775390624,14.42957778828125,9.234128475390625Q14.37124968828125,9.281997175390625,14.30851028828125,9.323917875390626Q14.24577118828125,9.365838975390625,14.17922498828125,9.401408475390625Q14.11267898828125,9.436978375390625,14.04296658828125,9.465853675390624Q13.97325468828125,9.494729475390624,13.90104798828125,9.516633275390625Q13.82884118828125,9.538537075390625,13.75483528828125,9.553257475390625Q13.68082938828125,9.567978375390625,13.60573698828125,9.575374375390625Q13.53064468828125,9.582770375390625,13.45518878828125,9.582770375390625Q13.37973308828125,9.582770375390625,13.30464048828125,9.575374575390626Q13.22954798828125,9.567978375390625,13.15554198828125,9.553257475390625Q13.08153608828125,9.538537075390625,13.00932938828125,9.516633275390625Q12.93712268828125,9.494729475390624,12.86741053828125,9.465853675390624Q12.79769849828125,9.436978375390625,12.731152478281249,9.401408675390625Q12.66460632828125,9.365838975390625,12.60186707828125,9.323918075390624Q12.53912794828125,9.281997175390625,12.48079979828125,9.234128675390625Q12.42247169828125,9.186260175390625,12.36911636828125,9.132904575390626Q12.31576108828125,9.079549275390626,12.26789241828125,9.021221175390625Q12.22002374828125,8.962892975390625,12.17810272828125,8.900153675390625Q12.13618173828125,8.837414475390625,12.10061210828125,8.770868275390626Q12.06504249828125,8.704322375390625,12.03616680828125,8.634610175390625Q12.00729113028125,8.564898275390625,11.98538746728125,8.492691675390624Q11.96348380328125,8.420484975390625,11.94876310628125,8.346478975390625Q11.93404241228125,8.272473075390625,11.92664645008125,8.197380775390625Q11.91925048828125,8.122288475390626,11.91925048828125,8.046832575390624Q11.91925048828125,7.971376875390625,11.92664645008125,7.896284375390625Q11.93404241228125,7.821191775390625,11.94876310628125,7.747185875390625Q11.96348380328125,7.6731799753906245,11.98538746728125,7.600973275390625Q12.00729113028125,7.528766675390625,12.03616680828125,7.459054525390625Q12.06504249828125,7.389342545390625,12.10061211828125,7.322796465390625Q12.13618173828125,7.256250385390625,12.17810272828125,7.193511125390625Q12.22002374828125,7.130771995390625,12.26789241828125,7.072443965390625Q12.31576108828125,7.014115815390625,12.36911636828125,6.960760505390625Q12.42247169828125,6.907405225390625,12.48079985828125,6.859536585390625Q12.53912794828125,6.811667915390625,12.60186707828125,6.769746925390625Q12.66460632828125,6.727825965390625,12.731152478281249,6.692256365390625Q12.79769849828125,6.656686735390625,12.86741053828125,6.627811055390625Q12.93712268828125,6.598935388390625,13.00932938828125,6.577031731390625Q13.08153608828125,6.555128075390625,13.15554198828125,6.540407383390625Q13.22954798828125,6.525686694390625,13.30464048828125,6.518290734890625Q13.37973308828125,6.510894775390625,13.45518878828125,6.510894775390625Q13.53064468828125,6.510894775390625,13.60573698828125,6.518290734890625Q13.68082948828125,6.525686694390625,13.75483538828125,6.540407383390625Q13.82884148828125,6.555128075390625,13.90104818828125,6.577031731390625Q13.97325488828125,6.598935388390625,14.04296688828125,6.627811055390625Q14.11267898828125,6.656686735390625,14.17922498828125,6.692256365390625Q14.24577118828125,6.727825965390625,14.30851028828125,6.769746925390625Q14.37124968828125,6.811667915390625,14.42957778828125,6.859536585390625Q14.48790598828125,6.907405225390625,14.54126118828125,6.960760505390625Q14.59461688828125,7.014115815390625,14.64248538828125,7.0724439053906245Q14.69035388828125,7.130771995390625,14.73227478828125,7.193511125390625Q14.77419568828125,7.256250385390625,14.80976538828125,7.322796465390625Q14.84533498828125,7.389342545390625,14.87421038828125,7.459054525390625Q14.90308618828125,7.528766675390625,14.92498998828125,7.600973375390625Q14.94689368828125,7.6731799753906245,14.96161408828125,7.747185875390625Q14.97633508828125,7.821191775390625,14.98373128828125,7.896284375390625Q14.99112728828125,7.971376875390625,14.99112698828125,8.046832575390624Z" fill="#707070" fill-opacity="1"/></g></svg>