<svg xmlns="http://www.w3.org/2000/svg" xmlns:xlink="http://www.w3.org/1999/xlink" fill="none" version="1.1" width="14" height="14" viewBox="0 0 14 14"><defs><clipPath id="master_svg0_1_20381"><rect x="0" y="0" width="14" height="14" rx="0"/></clipPath></defs><g clip-path="url(#master_svg0_1_20381)"><path d="M11.594890746139527,10.568906546139527L12.620657746139527,11.595012746139526C12.885180746139527,11.859546746139527,12.903138746139525,12.277065746139526,12.673454746139527,12.562257746139526L12.620657746139527,12.621056746139526C12.337697746139526,12.904093746139527,11.878388746139526,12.904093746139527,11.594890746139527,12.621056746139526L10.569122046139526,11.595012746139526C10.442637246139526,11.468672746139527,10.367272146139527,11.300058746139527,10.357455046139526,11.121568446139527C10.347578746139526,10.943075846139527,10.403966646139526,10.767217446139526,10.515786846139527,10.627706246139526L10.569122046139526,10.568906546139527C10.852082946139527,10.285331446139526,11.311391746139526,10.285331446139526,11.594890746139527,10.568906546139527ZM6.2450087461395265,1.1666667461395264C7.591844346139526,1.1666667461395264,8.883572346139527,1.7018490461395264,9.835951546139526,2.654480246139526C10.788330746139527,3.6071105461395265,11.323362746139527,4.899157546139526,11.323362746139527,6.246380546139527C11.323362746139527,7.593579546139527,10.788330746139527,8.885656546139526,9.835951546139526,9.838292846139526C8.883572346139527,10.790928646139527,7.591844346139526,11.326106746139526,6.2450087461395265,11.326106746139526C4.898149446139526,11.326106746139526,3.6064515461395263,10.790928646139527,2.654078346139526,9.838292846139526C1.7017045661395263,8.885656546139526,1.1666667461395264,7.593579546139527,1.1666667461395264,6.246380546139527C1.1666667461395264,4.899157546139526,1.7017045661395263,3.6071105461395265,2.654078346139526,2.654480246139526C3.6064515461395263,1.7018490461395264,4.898149446139526,1.1666667461395264,6.2450087461395265,1.1666667461395264ZM6.2450087461395265,2.2553308461395263C5.186802646139526,2.2553308461395263,4.171935046139526,2.675814146139526,3.4236738461395264,3.4242832461395265C2.675406546139526,4.172746946139526,2.255036846139526,5.187887946139527,2.255036846139526,6.246380546139527C2.255036846139526,7.304855146139526,2.675406546139526,8.320002346139526,3.4236738461395264,9.068459746139526C4.171935046139526,9.816917146139525,5.186802646139526,10.237430346139526,6.2450087461395265,10.237430346139526C7.303197146139526,10.237430346139526,8.318071146139527,9.816917146139525,9.066326346139526,9.068459746139526C9.814580646139527,8.320002346139526,10.234981346139527,7.304855146139526,10.234981346139527,6.246380546139527C10.234981346139527,5.187887946139527,9.814580646139527,4.172746946139526,9.066326346139526,3.4242832461395265C8.318071146139527,2.675814146139526,7.303197146139526,2.2553308461395263,6.2450087461395265,2.2553308461395263Z" fill="#707070" fill-opacity="1"/></g></svg>